<svg width="37" height="41" viewBox="0 0 37 41" fill="none" xmlns="http://www.w3.org/2000/svg">
<path d="M7.70837 12.1611H28.968C29.3987 12.1611 29.8247 12.2575 30.2185 12.444C30.6122 12.6306 30.965 12.9031 31.254 13.2441C31.5431 13.5851 31.762 13.9869 31.8966 14.4237C32.0313 14.8606 32.0787 15.3227 32.0359 15.7802L31.1109 25.6551C31.0348 26.4673 30.6787 27.2204 30.1118 27.7682C29.5449 28.3159 28.8076 28.6192 28.043 28.6192H13.32C12.607 28.6195 11.9159 28.356 11.3644 27.8735C10.8128 27.3909 10.4351 26.7192 10.2953 25.9728L7.70837 12.1611Z" stroke="#FF8C42" stroke-width="2" stroke-linejoin="round"/>
<path d="M7.70837 12.1611L6.45962 6.82373C6.37611 6.46783 6.18359 6.15192 5.91265 5.9262C5.64171 5.70047 5.30789 5.57786 4.96421 5.57785H3.08337" stroke="#FF8C42" stroke-width="2" stroke-linecap="round" stroke-linejoin="round"/>
<path d="M12.3334 35.2025H15.4167" stroke="#FF8C42" stroke-width="2" stroke-linecap="round" stroke-linejoin="round"/>
<path d="M24.6667 35.2025H27.7501" stroke="#FF8C42" stroke-width="2" stroke-linecap="round" stroke-linejoin="round"/>
</svg>
