<svg width="121" height="101" viewBox="0 0 121 101" fill="none" xmlns="http://www.w3.org/2000/svg">
<ellipse cx="59.6293" cy="50.2197" rx="47.9958" ry="50" transform="rotate(0.213277 59.6293 50.2197)" fill="#679436"/>
<path d="M60.3316 28.3215C60.4501 28.199 60.6467 28.1998 60.7643 28.3231L83.7224 52.401C83.9048 52.5923 83.7685 52.909 83.5041 52.908L37.4093 52.7364C37.1449 52.7354 37.011 52.4177 37.1948 52.2278L60.3316 28.3215Z" fill="white"/>
<rect x="41.0983" y="51.995" width="37.9747" height="26.3736" transform="rotate(0.213277 41.0983 51.995)" fill="white"/>
<rect x="60.1221" y="59.5622" width="13.7131" height="3.2967" transform="rotate(0.213277 60.1221 59.5622)" fill="#29B327"/>
<rect x="0.495422" y="58.8477" width="120" height="26.464" transform="rotate(0.213277 0.495422 58.8477)" fill="white"/>
<path d="M21.9047 67.4944C21.8459 67.5462 21.7932 67.6925 21.7468 67.9332C21.7003 68.174 21.5627 69.2932 21.3339 71.2911C21.1116 73.289 20.9982 74.8869 20.9938 76.0848C20.9918 76.6056 21.0581 77.1625 21.1926 77.7555C21.2377 77.8989 21.2601 77.9999 21.2599 78.0585C21.2586 78.397 21.1468 78.7091 20.9243 78.9947C20.7019 79.2803 20.4312 79.4226 20.1122 79.4214C19.8974 79.4206 19.6243 79.3121 19.2931 79.0961C18.9684 78.8865 18.7744 78.5277 18.7112 78.0197C18.6479 77.5116 18.6179 76.8507 18.6209 76.0369C18.6247 75.0018 18.7611 73.3584 19.0299 71.1067C19.2987 68.8551 19.4494 67.7196 19.482 67.7002C19.3062 67.6995 18.5801 67.7457 17.3037 67.8386C16.0208 67.9315 15.2817 67.9775 15.0864 67.9768C14.4158 67.9743 13.9507 67.8879 13.6909 67.7177C13.4311 67.541 13.3019 67.267 13.3033 66.8959C13.3045 66.5639 13.4422 66.3105 13.7163 66.1358C13.9969 65.961 14.7003 65.8758 15.8266 65.8799C17.7016 65.8869 19.5413 65.7701 21.3456 65.5294C23.378 65.2245 24.9182 65.0739 25.9664 65.0778C27.1383 65.0822 27.8506 65.2248 28.1035 65.5057C28.3564 65.7801 28.4823 66.054 28.4813 66.3274C28.479 66.9589 28.1978 67.2737 27.638 67.2716C27.4557 67.2709 27.1628 67.2503 26.7593 67.2097C26.3492 67.1756 25.8708 67.1576 25.3239 67.1555C23.6768 67.1494 22.537 67.2624 21.9047 67.4944ZM37.4956 73.0114C37.6202 72.771 38.1474 71.9103 39.0774 70.4294L39.2838 70.0981C40.2532 68.5132 41.0519 67.3313 41.6798 66.5524C42.3142 65.7735 42.7782 65.3064 43.0717 65.1513C43.3718 64.9896 43.7074 64.9095 44.0785 64.9109C44.417 64.9121 44.6739 64.9782 44.8492 65.1091C45.0311 65.2334 45.1212 65.5007 45.1197 65.9109C45.1184 66.2689 44.7681 66.7917 44.0689 67.4792C42.9908 68.5299 41.4135 70.7571 39.337 74.1609C38.099 76.1875 37.2021 77.5221 36.6463 78.1646C36.0905 78.807 35.4474 79.2962 34.717 79.632C33.9931 79.9678 33.2926 80.1345 32.6155 80.132C31.8473 80.1291 31.2067 79.9542 30.6936 79.6073C30.1871 79.2668 29.9348 78.8394 29.9367 78.3251C29.9384 77.8499 30.1151 77.6129 30.4667 77.6142C30.6359 77.6148 30.9123 77.7038 31.2957 77.881C31.6727 78.0647 31.9946 78.157 32.2615 78.158C33.2055 78.1615 34.0307 77.7382 34.737 76.8879C35.4433 76.0377 35.797 75.4563 35.7982 75.1438C35.7996 74.7662 35.0561 73.3507 33.5679 70.8972C32.4937 69.1354 31.7988 67.8046 31.4831 66.905C31.1675 65.9989 31.01 65.4417 31.0108 65.2333C31.0116 65.0055 31.1883 64.7685 31.5408 64.5224C31.8933 64.2698 32.1639 64.1439 32.3527 64.1446C32.5806 64.1454 32.8147 64.2244 33.055 64.3816C33.2953 64.5322 33.4507 64.7574 33.5212 65.0571C33.8484 66.3735 34.3743 67.6384 35.0989 68.8521L37.4956 73.0114ZM53.2656 67.1326L53.2754 67.1326C53.1905 67.1844 53.0433 67.3987 52.8335 67.7755C52.6501 68.0808 52.4735 68.3015 52.3037 68.4376C52.1339 68.5672 51.86 68.7127 51.4818 68.874C51.1036 69.0289 50.8103 69.1059 50.602 69.1051C50.3351 69.1041 50.1042 69.0349 49.9094 68.8975C49.7146 68.7535 49.6177 68.5578 49.6186 68.3104C49.6202 67.8938 49.9543 67.3156 50.6212 66.5759C51.2945 65.8297 52.2702 65.1855 53.5483 64.6434C54.8329 64.0948 56.0807 63.8227 57.2916 63.8272C57.9817 63.8298 58.5698 64.1315 59.0558 64.7323C59.5419 65.333 59.7834 66.0436 59.7803 66.8639C59.7785 67.3456 59.5354 67.9502 59.0509 68.6776C58.5664 69.3984 57.9977 70.0213 57.3447 70.5462C58.1253 70.7314 58.6808 71.033 59.0113 71.4509C59.3418 71.8623 59.5975 72.2539 59.7784 72.6256C59.9593 72.9909 60.0483 73.5674 60.0454 74.3551C60.0393 75.9958 59.2626 77.3959 57.7153 78.5555C56.168 79.7151 54.7596 80.2925 53.4901 80.2878C52.3377 80.2835 51.2419 79.9735 50.2025 79.3576C49.1631 78.7418 48.6454 77.9065 48.6493 76.8518C48.6505 76.5328 48.7458 76.289 48.9352 76.1204C49.1247 75.9454 49.3529 75.8583 49.6198 75.8593C49.8867 75.8603 50.1111 75.9295 50.2929 76.0669C50.4747 76.2043 50.6885 76.459 50.9346 76.831C51.2131 77.2227 51.5797 77.5463 52.0345 77.8019C52.4958 78.0575 52.9478 78.1862 53.3905 78.1878C54.5688 78.1922 55.583 77.7142 56.4329 76.7538C57.2894 75.787 57.7188 74.991 57.7211 74.366C57.7236 73.702 57.5206 73.1446 57.1121 72.6938C56.7102 72.2366 56.2097 72.0069 55.6108 72.0046C55.2787 72.0034 54.8713 72.1354 54.3886 72.4005C53.8536 72.6915 53.3811 72.8362 52.9709 72.8347C52.7105 72.8337 52.4114 72.7447 52.0735 72.5676C51.7356 72.3841 51.5672 72.1458 51.5683 71.8529C51.5686 71.7682 51.6343 71.6253 51.7652 71.4239C51.8962 71.2161 52.0334 71.0799 52.1769 71.0153C52.3269 70.9442 52.7898 70.7799 53.5655 70.5224C54.465 70.2328 55.1335 69.9228 55.5709 69.5924C56.0149 69.2555 56.4268 68.7948 56.8065 68.2102C57.1863 67.6192 57.3771 67.1023 57.3787 66.6596C57.3807 66.1323 57.1766 65.8678 56.7664 65.8663C55.7638 65.8626 54.5969 66.2847 53.2656 67.1326ZM81.0032 70.5074C80.687 73.2601 80.5265 75.2843 80.5216 76.5798C80.5207 76.8207 80.5747 77.192 80.6835 77.6937C80.7858 78.2019 80.8365 78.5667 80.8357 78.788C80.8343 79.1591 80.703 79.4516 80.4418 79.6655C80.1871 79.8794 79.8351 79.9855 79.3859 79.9838C78.9107 79.9821 78.56 79.7399 78.3339 79.2572C78.1079 78.7681 77.997 77.9474 78.0013 76.795C78.006 75.532 78.2259 73.2998 78.661 70.0982L78.7116 69.6101C78.6332 69.6945 78.5449 69.7951 78.4468 69.9119C77.9564 70.496 77.6556 70.8399 77.5446 70.9437L77.5641 70.934C76.322 72.3226 75.2959 73.3702 74.486 74.0769C74.0876 74.4204 73.5846 74.8678 72.9771 75.4189C72.3696 75.97 71.9222 76.3492 71.6349 76.5565C70.8189 77.1524 70.2962 77.6583 70.0668 78.0741C69.6736 78.7693 69.4149 79.1687 69.2908 79.2724L69.3006 79.2724C69.0521 79.5645 68.6479 79.7095 68.088 79.7074C67.3979 79.7048 67.0543 79.3162 67.0572 78.5414C67.0579 78.3591 67.1682 77.5848 67.3881 76.2184C67.5883 74.9236 67.9082 72.0504 68.348 67.5989C68.4563 66.473 68.5501 65.7507 68.6295 65.432C68.7153 65.1068 68.8922 64.8047 69.1602 64.5257C69.4347 64.2468 69.7021 64.1078 69.9625 64.1088C70.3597 64.1103 70.6781 64.2612 70.9179 64.5616C71.1641 64.862 71.2867 65.1684 71.2855 65.4809C71.2851 65.6046 71.2252 65.9527 71.1059 66.5252C70.9931 67.0847 70.9233 67.4653 70.8965 67.667C70.8965 67.6865 70.8329 68.142 70.7059 69.0335L70.365 71.4053C70.2389 72.0558 70.0844 73.3443 69.9014 75.2707C70.4893 74.7456 71.5771 73.7373 73.1647 72.2458C73.3411 72.0771 73.4554 71.9734 73.5076 71.9345C74.7616 70.8585 75.6144 70.0185 76.0659 69.4147C76.1051 69.3628 76.8671 68.4249 78.3517 66.601C78.476 66.4517 78.5512 66.3576 78.5774 66.3186C78.9634 65.7992 79.2838 65.4456 79.5384 65.2577C79.7995 65.0634 80.0929 64.9668 80.4184 64.968C80.7699 64.9693 81.0462 65.0941 81.2471 65.3422C81.4545 65.5839 81.5577 65.8447 81.5567 66.1246L81.0032 70.5074ZM92.899 74.3993C92.9561 74.8032 92.9411 75.324 92.8541 75.9617C92.6537 77.3346 92.5528 78.2066 92.5514 78.5777C92.5502 78.8967 92.3766 79.1923 92.0305 79.4645C91.691 79.7367 91.3161 79.872 90.9059 79.8705C90.3981 79.8686 90.1458 79.4542 90.1488 78.6274C90.1492 78.5297 90.1835 78.0579 90.2518 77.2117L90.4357 75.0152C90.4699 74.5726 90.5444 72.9387 90.6591 70.1136C90.7737 67.2885 90.8318 65.6806 90.8333 65.29C90.835 64.8278 90.9861 64.467 91.2865 64.2077C91.5935 63.9419 91.9358 63.8097 92.3134 63.8111C92.6584 63.8124 92.9411 63.9534 93.1614 64.2342C93.3817 64.515 93.4914 64.7856 93.4904 65.046C93.4849 66.5238 93.3682 68.1543 93.1402 69.9373L93.1402 69.9275C93.0789 70.676 93.0475 71.2423 93.046 71.6264C93.8424 71.063 94.8842 70.1424 96.1716 68.8646C97.4326 67.6453 98.3732 66.809 98.9934 66.3555C99.0653 66.2907 99.16 66.1967 99.2777 66.0734C99.8135 65.535 100.329 65.1658 100.825 64.9659L100.815 64.9658C100.887 64.927 101.001 64.9079 101.157 64.9085C101.476 64.9097 101.808 65.0411 102.152 65.3028C102.496 65.5645 102.667 65.7865 102.667 65.9688C102.666 66.0925 102.601 66.1997 102.47 66.2904C101.914 66.9524 100.876 67.9153 99.354 69.1792C97.7671 70.4884 96.526 71.5938 95.6307 72.4954C96.9307 73.0536 98.1822 73.527 99.3852 73.9156C99.3917 73.9157 99.4307 73.9321 99.5022 73.9649C99.8986 74.1682 100.142 74.283 100.233 74.3094C100.52 74.3886 100.939 74.5529 101.491 74.8024C102.193 75.1175 102.876 75.374 103.539 75.5717C104.203 75.763 104.577 75.8588 104.661 75.8591C104.714 75.7486 104.877 75.6939 105.15 75.6949C105.502 75.6962 105.817 75.8764 106.095 76.2356C106.374 76.5882 106.513 76.8686 106.512 77.077C106.511 77.435 106.37 77.7405 106.089 77.9934C105.814 78.2397 105.479 78.3622 105.082 78.3607C104.658 78.3591 103.91 78.1741 102.838 77.8055C101.765 77.4304 100.871 77.0853 100.156 76.7701C99.0963 76.3104 97.7864 75.7815 96.2262 75.1832C94.6659 74.5784 93.7653 74.2756 93.5244 74.2747C93.264 74.2737 93.0555 74.3153 92.899 74.3993Z" fill="#679436"/>
</svg>
